<svg width="192" height="225" viewBox="0 0 192 225" fill="none" xmlns="http://www.w3.org/2000/svg">
<path d="M2.89439 191.665C2.18329 192.395 2.19706 193.564 2.93792 194.263C18.5837 209.024 38.1607 218.978 59.3345 222.913C81.1131 226.96 103.603 224.458 123.96 215.724C144.317 206.99 161.626 192.415 173.7 173.843C185.773 155.271 192.069 133.536 191.789 111.386C191.51 89.2363 184.669 67.6668 172.131 49.4051C159.593 31.1434 141.922 17.0097 121.351 8.79132C100.78 0.572954 78.2348 -1.36098 56.5651 3.23409C35.4973 7.70154 16.1773 18.1453 0.908697 33.2966C0.185684 34.0141 0.201388 35.183 0.930658 35.8941C1.65991 36.6052 2.82652 36.5892 3.54993 35.8721C18.309 21.2429 36.9761 11.1585 57.3303 6.84244C78.2863 2.3987 100.089 4.26893 119.982 12.2166C139.876 20.1643 156.965 33.8326 169.09 51.4928C181.215 69.1531 187.831 90.0123 188.101 111.433C188.371 132.853 182.283 153.872 170.607 171.832C158.931 189.793 142.192 203.887 122.505 212.334C102.819 220.781 81.0698 223.2 60.0084 219.286C39.5519 215.484 20.6365 205.874 5.51338 191.621C4.77213 190.923 3.60548 190.936 2.89439 191.665Z" fill="#8E7E6D"/>
</svg>
