<svg width="207" height="242" viewBox="0 0 207 242" fill="none" xmlns="http://www.w3.org/2000/svg">
<path d="M202.761 35.3282C203.519 34.5379 203.494 33.2815 202.691 32.5367C185.74 16.8084 164.606 6.28412 141.81 2.24381C118.362 -1.91191 94.2082 0.978779 72.4033 10.5503C50.5984 20.1219 32.1214 35.9443 19.309 56.0169C6.49651 76.0895 -0.0759996 99.5107 0.42257 123.319C0.921142 147.127 8.4684 170.252 22.1099 189.771C35.7515 209.289 54.8746 224.324 77.0611 232.975C99.2476 241.625 123.501 243.502 146.754 238.368C169.362 233.377 190.037 221.977 206.314 205.553C207.085 204.776 207.058 203.519 206.268 202.761C205.477 202.003 204.223 202.031 203.452 202.808C187.717 218.667 167.741 229.674 145.899 234.496C123.412 239.461 99.9574 237.646 78.5016 229.28C57.0457 220.915 38.5524 206.375 25.3601 187.499C12.1678 168.623 4.86912 146.26 4.38697 123.236C3.90482 100.212 10.2609 77.562 22.6514 58.1504C35.0419 38.7389 52.9103 23.4375 73.9971 14.1812C95.0839 4.92486 118.442 2.12938 141.118 6.14824C163.142 10.0517 183.562 20.2134 199.946 35.3991C200.749 36.1434 202.003 36.1185 202.761 35.3282Z" fill="#8E7E6D"/>
</svg>
